<?xml version="1.0" standalone="no"?><!DOCTYPE svg PUBLIC "-//W3C//DTD SVG 1.1//EN" "http://www.w3.org/Graphics/SVG/1.1/DTD/svg11.dtd"><svg t="1599671548627" class="icon" viewBox="0 0 1024 1024" version="1.1" xmlns="http://www.w3.org/2000/svg" p-id="6548" xmlns:xlink="http://www.w3.org/1999/xlink" width="200" height="200"><defs><style type="text/css"></style></defs><path d="M96.711111 45.511111v927.288889c0 28.444444-22.755556 45.511111-45.511111 45.511111s-51.2-17.066667-51.2-39.822222V45.511111C0 22.755556 22.755556 0 51.2 0s45.511111 22.755556 45.511111 45.511111zM51.2 927.288889h927.288889c28.444444 0 45.511111 22.755556 45.511111 45.511111s-22.755556 51.2-51.2 51.2H51.2c-28.444444 0-51.2-22.755556-51.2-45.511111s22.755556-51.2 51.2-51.2zM352.711111 307.2v494.933333c0 28.444444-22.755556 45.511111-45.511111 45.511111-28.444444 0-45.511111-22.755556-45.511111-45.511111V307.2c0-28.444444 22.755556-45.511111 45.511111-45.511111 22.755556-5.688889 45.511111 17.066667 45.511111 45.511111z m512-176.355556V796.444444c0 28.444444-22.755556 45.511111-45.511111 45.511112-28.444444 0-45.511111-22.755556-45.511111-45.511112V130.844444c0-28.444444 22.755556-45.511111 45.511111-45.511111s45.511111 22.755556 45.511111 45.511111z m-256 341.333334V796.444444c0 28.444444-22.755556 45.511111-45.511111 45.511112-28.444444 0-45.511111-22.755556-45.511111-45.511112V472.177778c0-28.444444 22.755556-45.511111 45.511111-45.511111s45.511111 22.755556 45.511111 45.511111z" fill="#515151" p-id="6549"></path></svg>