<?xml version="1.0" standalone="no"?><!DOCTYPE svg PUBLIC "-//W3C//DTD SVG 1.1//EN" "http://www.w3.org/Graphics/SVG/1.1/DTD/svg11.dtd"><svg t="1599671540857" class="icon" viewBox="0 0 1024 1024" version="1.1" xmlns="http://www.w3.org/2000/svg" p-id="6306" xmlns:xlink="http://www.w3.org/1999/xlink" width="200" height="200"><defs><style type="text/css"></style></defs><path d="M884.363636 69.818182C927.375868 69.818182 970.409256 69.818182 1013.421488 69.818182 1013.421488 102.251901 1013.421488 134.706777 1013.421488 167.140496 980.247273 167.140496 947.073058 167.140496 913.898843 167.140496 809.129256 270.492562 704.507769 374.035041 599.653554 477.302479 564.913719 442.816529 532.078017 406.553388 498.586446 370.882645 473.409587 343.928595 448.275041 316.953388 423.077025 290.041653 299.964298 397.37124 176.936198 504.806612 53.802314 612.115041 43.160331 599.886281 32.433719 587.742149 21.855207 575.449917 144.502479 468.374215 267.297851 361.510083 389.839339 254.328595 402.935537 244.702149 414.085289 232.811901 426.208264 222.021818 484.136198 284.223471 542.254545 346.234711 600.182479 408.436364 691.242314 318.688264 782.15405 228.770909 873.17157 138.980496 876.704793 135.341488 880.301488 131.76595 884.321322 128.634711 884.427107 109.022149 884.321322 89.430744 884.363636 69.818182Z" p-id="6307" fill="#515151"></path><path d="M897.057851 399.867769C931.607273 399.867769 966.177851 399.867769 1000.727273 399.867769 1000.727273 583.933884 1000.727273 768 1000.727273 952.066116 966.177851 952.066116 931.607273 952.066116 897.057851 952.066116 897.057851 768 897.057851 583.933884 897.057851 399.867769Z" p-id="6308" fill="#515151"></path><path d="M600.859504 575.471074C635.408926 575.471074 669.979504 575.471074 704.528926 575.471074 704.528926 700.995702 704.528926 826.541488 704.528926 952.066116 669.979504 952.066116 635.408926 952.066116 600.859504 952.066116 600.859504 826.541488 600.859504 700.995702 600.859504 575.471074Z" p-id="6309" fill="#515151"></path><path d="M306.77686 632.595041C341.326281 632.595041 375.89686 632.595041 410.446281 632.595041 410.446281 739.078347 410.446281 845.58281 410.446281 952.066116 375.89686 952.066116 341.326281 952.066116 306.77686 952.066116 306.77686 845.58281 306.77686 739.078347 306.77686 632.595041Z" p-id="6310" fill="#515151"></path><path d="M8.46281 748.958678C43.012231 748.958678 77.58281 748.958678 112.132231 748.958678 112.132231 816.661157 112.132231 884.363636 112.132231 952.066116 77.58281 952.066116 43.012231 952.066116 8.46281 952.066116 8.46281 884.363636 8.46281 816.661157 8.46281 748.958678Z" p-id="6311" fill="#515151"></path></svg>