<?xml version="1.0" standalone="no"?><!DOCTYPE svg PUBLIC "-//W3C//DTD SVG 1.1//EN" "http://www.w3.org/Graphics/SVG/1.1/DTD/svg11.dtd"><svg t="1599671527728" class="icon" viewBox="0 0 1024 1024" version="1.1" xmlns="http://www.w3.org/2000/svg" p-id="5939" xmlns:xlink="http://www.w3.org/1999/xlink" width="200" height="200"><defs><style type="text/css"></style></defs><path d="M419.314675 761.0202 227.008621 761.0202c-17.935721-1.325779-31.718956-8.798793-41.349706-22.41661S170.212983 709.873109 168.221882 693.268033c1.991101-16.609942 7.806283-30.227759 17.437033-40.855884s23.413985-16.605077 41.349706-17.930856l192.306054 0 0-62.777455-192.306054-0.99251c-17.935721-1.330644-31.718956-7.639649-41.349706-18.933096S170.212983 526.201646 168.221882 508.930031c1.991101-16.605077 7.806283-30.222894 17.437033-40.851019 9.63075-10.628125 23.413985-16.605077 41.349706-17.935721l143.482118 0L236.971424 214.991469c-6.642274-7.968053-12.951279-18.09749-18.928231-30.388312-5.981817-12.287173-8.63824-25.742004-7.972918-40.352331 3.321745-18.601043 9.964019-33.714922 19.926822-45.336773 9.962803-11.6255 28.563846-19.09973 55.798263-22.420259 15.94462 1.330644 30.227759 6.807692 42.846985 16.438442 12.624091 9.635615 22.918947 20.097105 30.886999 31.386903l151.455036 277.000216 166.396199-278.991317c7.972918-11.293447 18.26899-21.25625 30.891865-29.89449 12.619226-8.632159 26.901149-13.948654 42.84212-15.939755 9.967668 0.665322 19.09973 1.991101 27.404701 3.985851 8.300106 1.991101 15.607702 5.31163 21.917923 9.964019 6.310221 4.651173 11.626716 11.293447 15.94462 19.925605 4.31912 8.63824 7.474231 19.931687 9.464115 33.881557 0 19.2615-6.642274 37.529273-19.926822 54.800888L651.478022 450.143292l146.470594 0c17.270399 1.330644 30.888216 7.307596 40.851019 17.935721 9.962803 10.628125 15.612567 24.245942 16.938346 40.851019-1.325779 17.271615-7.136096 31.885591-17.437033 43.84436-10.296072 11.953904-24.079307 18.601043-41.349706 19.926822l-190.310088 0.997375 0 60.782706 191.307463 0c17.270399 1.325779 30.888216 7.968053 40.851019 19.926822 9.962803 11.953904 15.612567 26.235827 16.938346 42.846985-1.325779 17.270399-6.974327 31.718956-16.938346 43.340807-9.962803 11.626716-23.58062 18.102355-40.851019 19.433l-191.307463-0.997375 0 105.619575c-2.661288 56.463586-33.548288 84.695378-92.668296 84.695378-29.225519 0-51.979047-6.974327-68.252071-20.929062-16.276673-13.94987-25.076682-35.201254-26.40611-63.766316L419.314675 761.0202 419.314675 761.0202zM419.314675 761.0202" p-id="5940" fill="#515151"></path></svg>